<svg width="14" height="16" viewBox="0 0 14 16" fill="none" xmlns="http://www.w3.org/2000/svg">
<path fill-rule="evenodd" clip-rule="evenodd" d="M12.45 13.4C12.45 14 11.95 14.5 11.35 14.5H2.54995C1.94995 14.5 1.44995 14 1.44995 13.4V5.5C1.44995 5 1.94995 4.5 2.54995 4.5H11.45C12.05 4.5 12.55 5 12.55 5.6V13.4H12.45ZM6.94995 1.5C8.14995 1.5 9.04995 2.4 9.24995 3.5H4.64995C4.84995 2.4 5.74995 1.5 6.94995 1.5ZM11.35 3.5H10.25C10.05 1.8 8.64995 0.5 6.94995 0.5C5.24995 0.5 3.84995 1.8 3.64995 3.5H2.54995C1.34995 3.5 0.449951 4.4 0.449951 5.6V13.5C0.449951 14.6 1.34995 15.5 2.54995 15.5H11.45C12.55 15.5 13.55 14.6 13.55 13.4V5.5C13.45 4.4 12.55 3.5 11.35 3.5Z" fill="white"/>
</svg>
