<svg width="18" height="18" viewBox="0 0 18 18" fill="none" xmlns="http://www.w3.org/2000/svg">
<mask id="path-1-inside-1_38_448" fill="white">
<path fill-rule="evenodd" clip-rule="evenodd" d="M12.6743 6.13012C12.2716 6.04485 11.8538 6 11.4257 6C8.11195 6 5.42566 8.68629 5.42566 12C5.42566 12.7013 5.54597 13.3744 5.76707 14H2.67434C2.07434 14 1.57434 13.5 1.57434 12.9V5C1.57434 4.5 2.07434 4 2.67434 4H11.5743C12.1743 4 12.6743 4.5 12.6743 5.1V6.13012ZM13.6743 6.4356V5C13.5743 3.9 12.6743 3 11.4743 3H10.3743C10.1743 1.3 8.77434 0 7.07434 0C5.37434 0 3.97434 1.3 3.77434 3H2.67434C1.47434 3 0.574341 3.9 0.574341 5.1V13C0.574341 14.1 1.47434 15 2.67434 15H6.22835C7.26578 16.7934 9.20481 18 11.4257 18C14.7394 18 17.4257 15.3137 17.4257 12C17.4257 9.48146 15.8739 7.32536 13.6743 6.4356ZM9.37434 3C9.17434 1.9 8.27434 1 7.07434 1C5.87434 1 4.97434 1.9 4.77434 3H9.37434Z"/>
</mask>
<path fill-rule="evenodd" clip-rule="evenodd" d="M12.6743 6.13012C12.2716 6.04485 11.8538 6 11.4257 6C8.11195 6 5.42566 8.68629 5.42566 12C5.42566 12.7013 5.54597 13.3744 5.76707 14H2.67434C2.07434 14 1.57434 13.5 1.57434 12.9V5C1.57434 4.5 2.07434 4 2.67434 4H11.5743C12.1743 4 12.6743 4.5 12.6743 5.1V6.13012ZM13.6743 6.4356V5C13.5743 3.9 12.6743 3 11.4743 3H10.3743C10.1743 1.3 8.77434 0 7.07434 0C5.37434 0 3.97434 1.3 3.77434 3H2.67434C1.47434 3 0.574341 3.9 0.574341 5.1V13C0.574341 14.1 1.47434 15 2.67434 15H6.22835C7.26578 16.7934 9.20481 18 11.4257 18C14.7394 18 17.4257 15.3137 17.4257 12C17.4257 9.48146 15.8739 7.32536 13.6743 6.4356ZM9.37434 3C9.17434 1.9 8.27434 1 7.07434 1C5.87434 1 4.97434 1.9 4.77434 3H9.37434Z" fill="white"/>
<path d="M12.6743 6.13012L12.4672 7.10844L13.6743 7.36395V6.13012H12.6743ZM5.76707 14V15H7.18115L6.70991 13.6668L5.76707 14ZM13.6743 6.4356H12.6743V7.10981L13.2993 7.36263L13.6743 6.4356ZM13.6743 5H14.6743V4.95464L14.6702 4.90946L13.6743 5ZM10.3743 3L9.38119 3.11684L9.48509 4H10.3743V3ZM3.77434 3V4H4.66359L4.76749 3.11684L3.77434 3ZM6.22835 15L7.09396 14.4993L6.80514 14H6.22835V15ZM9.37434 3V4H10.5726L10.3582 2.82111L9.37434 3ZM4.77434 3L3.79047 2.82111L3.57613 4H4.77434V3ZM11.4257 7C11.7838 7 12.1321 7.0375 12.4672 7.10844L12.8814 5.15179C12.411 5.05221 11.9239 5 11.4257 5V7ZM6.42566 12C6.42566 9.23858 8.66424 7 11.4257 7V5C7.55967 5 4.42566 8.13401 4.42566 12H6.42566ZM6.70991 13.6668C6.52611 13.1467 6.42566 12.5862 6.42566 12H4.42566C4.42566 12.8164 4.56582 13.6021 4.82423 14.3332L6.70991 13.6668ZM5.76707 13H2.67434V15H5.76707V13ZM2.67434 13C2.65689 13 2.63154 12.993 2.60645 12.9679C2.58136 12.9428 2.57434 12.9174 2.57434 12.9H0.574341C0.574341 14.0523 1.52206 15 2.67434 15V13ZM2.57434 12.9V5H0.574341V12.9H2.57434ZM2.57434 5C2.57434 5.04205 2.56403 5.06415 2.56336 5.06554C2.5628 5.06672 2.56786 5.0565 2.58328 5.04204C2.59829 5.02796 2.61625 5.01639 2.63396 5.00901C2.65073 5.00203 2.66415 5 2.67434 5V3C1.58383 3 0.574341 3.8879 0.574341 5H2.57434ZM2.67434 5H11.5743V3H2.67434V5ZM11.5743 5C11.5918 5 11.6171 5.00702 11.6422 5.03211C11.6673 5.0572 11.6743 5.08255 11.6743 5.1H13.6743C13.6743 3.94772 12.7266 3 11.5743 3V5ZM11.6743 5.1V6.13012H13.6743V5.1H11.6743ZM14.6743 6.4356V5H12.6743V6.4356H14.6743ZM14.6702 4.90946C14.5254 3.31612 13.2131 2 11.4743 2V4C12.1356 4 12.6233 4.48388 12.6784 5.09054L14.6702 4.90946ZM11.4743 2H10.3743V4H11.4743V2ZM11.3675 2.88316C11.1112 0.704799 9.30645 -1 7.07434 -1V1C8.24223 1 9.23747 1.8952 9.38119 3.11684L11.3675 2.88316ZM7.07434 -1C4.84223 -1 3.03747 0.704799 2.78119 2.88316L4.76749 3.11684C4.91121 1.8952 5.90645 1 7.07434 1V-1ZM3.77434 2H2.67434V4H3.77434V2ZM2.67434 2C0.922056 2 -0.425659 3.34772 -0.425659 5.1H1.57434C1.57434 4.45228 2.02663 4 2.67434 4V2ZM-0.425659 5.1V13H1.57434V5.1H-0.425659ZM-0.425659 13C-0.425659 14.684 0.954282 16 2.67434 16V14C1.9944 14 1.57434 13.516 1.57434 13H-0.425659ZM2.67434 16H6.22835V14H2.67434V16ZM11.4257 17C9.57621 17 7.95999 15.9964 7.09396 14.4993L5.36275 15.5007C6.57157 17.5904 8.83341 19 11.4257 19V17ZM16.4257 12C16.4257 14.7614 14.1871 17 11.4257 17V19C15.2917 19 18.4257 15.866 18.4257 12H16.4257ZM13.2993 7.36263C15.1342 8.10484 16.4257 9.9028 16.4257 12H18.4257C18.4257 9.06013 16.6137 6.54588 14.0493 5.50858L13.2993 7.36263ZM7.07434 2C7.72197 2 8.26395 2.483 8.39047 3.17889L10.3582 2.82111C10.0847 1.317 8.82671 0 7.07434 0V2ZM5.75821 3.17889C5.88473 2.483 6.42671 2 7.07434 2V0C5.32197 0 4.06395 1.317 3.79047 2.82111L5.75821 3.17889ZM9.37434 2H4.77434V4H9.37434V2Z" fill="white" mask="url(#path-1-inside-1_38_448)"/>
</svg>
