<svg width="10" height="17" viewBox="0 0 10 17" fill="none" xmlns="http://www.w3.org/2000/svg">
<path d="M10 8.5C10 8.3763 9.97558 8.26074 9.92676 8.15332C9.87793 8.0459 9.80795 7.94661 9.7168 7.85547L1.98242 0.277344C1.80664 0.108073 1.5918 0.0234375 1.33789 0.0234375C1.17513 0.0234375 1.02539 0.0625002 0.888672 0.140625C0.751953 0.21875 0.644531 0.324544 0.566407 0.458008C0.488281 0.591471 0.449219 0.742839 0.449219 0.912109C0.449219 1.15299 0.533854 1.36458 0.703125 1.54688L7.8125 8.5L0.703125 15.4531C0.533854 15.6354 0.449219 15.847 0.449219 16.0879C0.449219 16.2572 0.488281 16.4086 0.566407 16.542C0.644531 16.6755 0.751953 16.7813 0.888672 16.8593C1.02539 16.9375 1.17513 16.9765 1.33789 16.9765C1.5918 16.9765 1.80664 16.8887 1.98242 16.7129L9.7168 9.14453C9.80795 9.05339 9.87793 8.9541 9.92676 8.84668C9.97558 8.73926 10 8.6237 10 8.5Z" fill="white"/>
</svg>
