<svg width="23" height="24" viewBox="0 0 23 24" fill="none" xmlns="http://www.w3.org/2000/svg">
<path d="M2.28253 24H20.1823C20.8943 24 21.4527 23.842 21.8576 23.5261C22.2624 23.2102 22.4648 22.7764 22.4648 22.2246C22.4648 21.3703 22.2046 20.4671 21.6841 19.515C21.1635 18.5628 20.416 17.6707 19.4415 16.8387C18.4671 16.0066 17.288 15.3303 15.9042 14.8097C14.5205 14.2891 12.961 14.0288 11.2258 14.0288C9.49942 14.0288 7.94436 14.2891 6.5606 14.8097C5.17685 15.3303 3.99554 16.0066 3.01668 16.8387C2.03781 17.6707 1.29032 18.5628 0.774191 19.515C0.258064 20.4671 0 21.3703 0 22.2246C0 22.7764 0.202447 23.2102 0.60734 23.5261C1.01223 23.842 1.57063 24 2.28253 24ZM11.2391 11.6396C12.1913 11.6396 13.0723 11.3793 13.882 10.8587C14.6918 10.3381 15.3437 9.6329 15.8375 8.74303C16.3314 7.85315 16.5784 6.85204 16.5784 5.73969C16.5784 4.64515 16.3314 3.66406 15.8375 2.79643C15.3437 1.92881 14.6918 1.24583 13.882 0.747496C13.0723 0.249165 12.1913 0 11.2391 0C10.287 0 9.40598 0.253614 8.59619 0.760843C7.78641 1.26807 7.13458 1.95773 6.6407 2.82981C6.14682 3.70188 5.89988 4.68075 5.89988 5.7664C5.89988 6.86984 6.14682 7.86427 6.6407 8.7497C7.13458 9.63512 7.78641 10.3381 8.59619 10.8587C9.40598 11.3793 10.287 11.6396 11.2391 11.6396Z" fill="white"/>
</svg>
