<svg width="35" height="35" viewBox="0 0 35 35" fill="none" xmlns="http://www.w3.org/2000/svg">
<mask id="path-1-inside-1_255_4563" fill="white">
<path fill-rule="evenodd" clip-rule="evenodd" d="M25.886 23.6507C31.1194 22.3586 35 17.6325 35 12C35 5.37258 29.6274 0 23 0C17.4085 0 12.7102 3.82432 11.3781 9H8.42836H8.38733C7.39147 8.99999 6.58528 8.99998 5.92865 9.05211C5.25056 9.10594 4.65215 9.21973 4.08951 9.49105C3.1931 9.92331 2.44704 10.6157 1.94652 11.4777C1.63282 12.0179 1.47121 12.6069 1.36193 13.2818C1.25599 13.936 1.18912 14.7449 1.10637 15.7457L1.10303 15.7861L0.176887 26.9861L0.173225 27.0304C0.0768426 28.1958 -0.000642776 29.1328 0.000106096 29.8923C0.000874758 30.6719 0.0817076 31.3608 0.361584 32.0044C0.804406 33.0227 1.57238 33.8646 2.54548 34.3955C3.16153 34.7316 3.83915 34.8704 4.61178 34.9361C5.36373 35 6.2975 35 7.45718 35H7.45726H7.50222H18.8365H18.8814H18.8815C20.0412 35 20.975 35 21.7269 34.9361C22.4995 34.8704 23.1772 34.7316 23.7932 34.3955C24.7663 33.8646 25.5343 33.0227 25.9771 32.0044C26.257 31.3608 26.3378 30.6719 26.3386 29.8923C26.3393 29.1328 26.2619 28.1959 26.1655 27.0305L26.1655 27.0304L26.1618 26.9861L25.886 23.6507ZM11.0411 11C11.0139 11.3297 11 11.6632 11 12C11 15.4249 12.4348 18.5146 14.736 20.701C14.2413 20.8968 13.7104 21 13.1693 21C12.0335 21 10.9426 20.5453 10.137 19.7335C9.3312 18.9215 8.87712 17.8184 8.87712 16.6667C8.87712 16.1144 8.42941 15.6667 7.87712 15.6667C7.32484 15.6667 6.87712 16.1144 6.87712 16.6667C6.87712 18.3439 7.53819 19.954 8.71734 21.1423C9.89676 22.3308 11.498 23 13.1693 23C14.3417 23 15.4796 22.6707 16.4616 22.0639C18.3426 23.2885 20.5882 24 23 24C23.3045 24 23.6064 23.9887 23.9053 23.9664L24.1686 27.1509C24.2695 28.3709 24.3392 29.2244 24.3386 29.8903C24.3379 30.5457 24.2667 30.9223 24.143 31.2068C23.8767 31.8192 23.416 32.323 22.8354 32.6398C22.5672 32.786 22.2038 32.8884 21.5575 32.9433C20.9003 32.9992 20.0517 33 18.8365 33H7.50222C6.28703 33 5.43841 32.9992 4.78115 32.9433C4.13485 32.8884 3.77144 32.786 3.50332 32.6398C2.92274 32.323 2.462 31.8192 2.19566 31.2068C2.07197 30.9223 2.00075 30.5457 2.00011 29.8903C1.99945 29.2244 2.0692 28.3709 2.17008 27.1509L3.09622 15.9509C3.18311 14.9002 3.24425 14.1694 3.33621 13.6015C3.42625 13.0454 3.53488 12.7251 3.67609 12.4819C3.97674 11.9642 4.42367 11.5503 4.95821 11.2925C5.20805 11.1721 5.53123 11.09 6.08693 11.0458C6.6551 11.0007 7.38178 11 8.42836 11H11.0411Z"/>
</mask>
<path d="M25.886 23.6507L25.4066 21.709L23.7524 22.1174L23.8928 23.8155L25.886 23.6507ZM11.3781 9V11H12.9285L13.3149 9.49852L11.3781 9ZM8.38733 9L8.3873 11H8.38733V9ZM5.92865 9.05211L6.08693 11.0458L6.08693 11.0458L5.92865 9.05211ZM4.08951 9.49105L3.22081 7.68956L3.22081 7.68956L4.08951 9.49105ZM1.94652 11.4777L0.216947 10.4734L0.216947 10.4734L1.94652 11.4777ZM1.36193 13.2818L-0.612358 12.9621L-0.612358 12.9621L1.36193 13.2818ZM1.10637 15.7457L3.09956 15.9105L3.09956 15.9105L1.10637 15.7457ZM1.10303 15.7861L3.09622 15.9509L3.09622 15.9509L1.10303 15.7861ZM0.176887 26.9861L2.17008 27.1509L2.17008 27.1509L0.176887 26.9861ZM0.173225 27.0304L2.16642 27.1952L2.16642 27.1952L0.173225 27.0304ZM0.000106096 29.8923L2.00011 29.8903L2.00011 29.8903L0.000106096 29.8923ZM0.361584 32.0044L2.19567 31.2068L2.19566 31.2068L0.361584 32.0044ZM2.54548 34.3955L3.50332 32.6398L2.54548 34.3955ZM4.61178 34.9361L4.44241 36.9289L4.44242 36.9289L4.61178 34.9361ZM7.45718 35L7.45718 33L7.45717 33L7.45718 35ZM18.8815 35L18.8815 33H18.8815V35ZM21.7269 34.9361L21.8963 36.9289L21.8963 36.9289L21.7269 34.9361ZM23.7932 34.3955L24.7511 36.1512L24.7511 36.1512L23.7932 34.3955ZM25.9771 32.0044L24.143 31.2068L24.143 31.2068L25.9771 32.0044ZM26.3386 29.8923L24.3386 29.8903L24.3386 29.8903L26.3386 29.8923ZM26.1655 27.0305L28.1587 26.8657L28.1573 26.8486L28.1556 26.8315L26.1655 27.0305ZM26.1655 27.0304L24.1723 27.1953L24.1737 27.2123L24.1754 27.2294L26.1655 27.0304ZM26.1618 26.9861L24.1686 27.1509L24.1686 27.151L26.1618 26.9861ZM11.0411 11L13.0343 11.1644L13.2129 9H11.0411V11ZM14.736 20.701L15.4721 22.5606L18.384 21.4081L16.1136 19.2511L14.736 20.701ZM10.137 19.7335L11.5567 18.3248L11.5567 18.3248L10.137 19.7335ZM8.71734 21.1423L7.29767 22.551L7.29767 22.551L8.71734 21.1423ZM16.4616 22.0639L17.5528 20.3878L16.4895 19.6956L15.4102 20.3626L16.4616 22.0639ZM23.9053 23.9664L25.8985 23.8015L25.735 21.8243L23.7565 21.9719L23.9053 23.9664ZM24.1686 27.1509L22.1754 27.3157L22.1754 27.3157L24.1686 27.1509ZM24.3386 29.8903L26.3386 29.8923L26.3386 29.8923L24.3386 29.8903ZM24.143 31.2068L25.9771 32.0044L25.9771 32.0044L24.143 31.2068ZM22.8354 32.6398L23.7932 34.3955L23.7932 34.3955L22.8354 32.6398ZM21.5575 32.9433L21.3882 30.9505L21.3882 30.9505L21.5575 32.9433ZM4.78115 32.9433L4.95052 30.9505L4.9505 30.9505L4.78115 32.9433ZM3.50332 32.6398L2.54546 34.3955L2.54549 34.3955L3.50332 32.6398ZM2.19566 31.2068L4.02974 30.4092L4.02974 30.4092L2.19566 31.2068ZM2.00011 29.8903L4.0001 29.8883L4.0001 29.8883L2.00011 29.8903ZM2.17008 27.1509L0.176887 26.9861L0.176887 26.9861L2.17008 27.1509ZM3.09622 15.9509L5.08942 16.1157L5.08942 16.1157L3.09622 15.9509ZM3.33621 13.6015L1.36193 13.2818L1.36193 13.2818L3.33621 13.6015ZM3.67609 12.4819L5.40566 13.4862L5.40567 13.4862L3.67609 12.4819ZM4.95821 11.2925L5.82691 13.094L5.82691 13.094L4.95821 11.2925ZM6.08693 11.0458L6.24521 13.0396L6.24521 13.0396L6.08693 11.0458ZM33 12C33 16.6911 29.768 20.6322 25.4066 21.709L26.3654 25.5924C32.4709 24.085 37 18.5739 37 12H33ZM23 2C28.5229 2 33 6.47715 33 12H37C37 4.26801 30.732 -2 23 -2V2ZM13.3149 9.49852C14.4251 5.18502 18.3431 2 23 2V-2C16.4738 -2 10.9952 2.46362 9.44118 8.50148L13.3149 9.49852ZM8.42836 11H11.3781V7H8.42836V11ZM8.38733 11H8.42836V7H8.38733V11ZM6.08693 11.0458C6.64675 11.0014 7.36235 11 8.3873 11L8.38735 7C7.4206 6.99999 6.5238 6.99857 5.77037 7.05838L6.08693 11.0458ZM4.95821 11.2925C5.20824 11.172 5.53156 11.0899 6.08693 11.0458L5.77037 7.05838C4.96955 7.12196 4.09607 7.2675 3.22081 7.68956L4.95821 11.2925ZM3.67609 12.4819C3.97675 11.9642 4.42368 11.5503 4.95821 11.2925L3.22081 7.68956C1.96252 8.29632 0.917335 9.26718 0.216947 10.4734L3.67609 12.4819ZM3.33621 13.6015C3.42619 13.0458 3.53477 12.7253 3.67609 12.4819L0.216947 10.4734C-0.269124 11.3105 -0.483772 12.168 -0.612358 12.9621L3.33621 13.6015ZM3.09956 15.9105C3.18468 14.8811 3.24557 14.1613 3.33621 13.6015L-0.612358 12.9621C-0.733581 13.7108 -0.806451 14.6087 -0.886833 15.5809L3.09956 15.9105ZM3.09622 15.9509L3.09956 15.9105L-0.886832 15.5809L-0.890172 15.6213L3.09622 15.9509ZM2.17008 27.1509L3.09622 15.9509L-0.890171 15.6213L-1.81631 26.8213L2.17008 27.1509ZM2.16642 27.1952L2.17008 27.1509L-1.81631 26.8213L-1.81997 26.8656L2.16642 27.1952ZM2.00011 29.8903C1.99946 29.2334 2.06744 28.392 2.16642 27.1952L-1.81997 26.8655C-1.91376 27.9996 -2.00074 29.0322 -1.99989 29.8943L2.00011 29.8903ZM2.19566 31.2068C2.07186 30.9221 2.00075 30.5452 2.00011 29.8903L-1.99989 29.8943C-1.999 30.7986 -1.90844 31.7995 -1.4725 32.802L2.19566 31.2068ZM3.50332 32.6398C2.92275 32.323 2.46201 31.8193 2.19567 31.2068L-1.4725 32.802C-0.853199 34.2261 0.222003 35.4062 1.58763 36.1512L3.50332 32.6398ZM4.78115 32.9433C4.13528 32.8884 3.77168 32.7862 3.50332 32.6398L1.58763 36.1512C2.55139 36.677 3.54302 36.8525 4.44241 36.9289L4.78115 32.9433ZM7.45717 33C6.26558 33 5.42935 32.9984 4.78114 32.9433L4.44242 36.9289C5.29811 37.0016 6.32943 37 7.45719 37L7.45717 33ZM7.45726 33H7.45718V37H7.45726V33ZM7.50222 33H7.45726V37H7.50222V33ZM18.8365 33H7.50222V37H18.8365V33ZM18.8814 33H18.8365V37H18.8814V33ZM18.8815 33H18.8814V37H18.8815V33ZM21.5576 32.9433C20.9093 32.9984 20.0731 33 18.8815 33L18.8815 37C20.0093 37 21.0406 37.0016 21.8963 36.9289L21.5576 32.9433ZM22.8354 32.6398C22.567 32.7862 22.2034 32.8884 21.5575 32.9433L21.8963 36.9289C22.7957 36.8525 23.7873 36.677 24.7511 36.1512L22.8354 32.6398ZM24.143 31.2068C23.8767 31.8193 23.4159 32.323 22.8354 32.6398L24.7511 36.1512C26.1167 35.4062 27.1919 34.2261 27.8112 32.802L24.143 31.2068ZM24.3386 29.8903C24.3379 30.5453 24.2668 30.9221 24.143 31.2068L27.8112 32.802C28.2471 31.7995 28.3377 30.7986 28.3386 29.8943L24.3386 29.8903ZM24.1723 27.1953C24.2713 28.3921 24.3392 29.2334 24.3386 29.8903L28.3386 29.8943C28.3394 29.0322 28.2525 27.9997 28.1587 26.8657L24.1723 27.1953ZM24.1754 27.2294L24.1754 27.2295L28.1556 26.8315L28.1555 26.8314L24.1754 27.2294ZM24.1686 27.151L24.1723 27.1953L28.1587 26.8655L28.155 26.8212L24.1686 27.151ZM23.8928 23.8155L24.1686 27.1509L28.155 26.8213L27.8792 23.4859L23.8928 23.8155ZM13 12C13 11.7182 13.0116 11.4395 13.0343 11.1644L9.04785 10.8356C9.01614 11.2199 9 11.6083 9 12H13ZM16.1136 19.2511C14.1932 17.4266 13 14.8543 13 12H9C9 15.9955 10.6763 19.6027 13.3585 22.151L16.1136 19.2511ZM13.1693 23C13.9651 23 14.7456 22.8482 15.4721 22.5606L14 18.8414C13.7371 18.9454 13.4558 19 13.1693 19V23ZM8.71734 21.1423C9.89678 22.3309 11.4981 23 13.1693 23V19C12.5689 19 11.9884 18.7598 11.5567 18.3248L8.71734 21.1423ZM6.87712 16.6667C6.87712 18.3439 7.53821 19.954 8.71734 21.1423L11.5567 18.3248C11.1242 17.889 10.8771 17.2929 10.8771 16.6667H6.87712ZM7.87712 17.6667C7.32483 17.6667 6.87712 17.2189 6.87712 16.6667H10.8771C10.8771 15.0098 9.53398 13.6667 7.87712 13.6667V17.6667ZM8.87712 16.6667C8.87712 17.219 8.42941 17.6667 7.87712 17.6667V13.6667C6.22027 13.6667 4.87712 15.0098 4.87712 16.6667H8.87712ZM10.137 19.7335C9.33122 18.9215 8.87712 17.8184 8.87712 16.6667H4.87712C4.87712 18.8693 5.74515 20.9864 7.29767 22.551L10.137 19.7335ZM13.1693 21C12.0335 21 10.9426 20.5454 10.137 19.7335L7.29767 22.551C8.85093 24.1163 10.9626 25 13.1693 25V21ZM15.4102 20.3626C14.7407 20.7763 13.9663 21 13.1693 21V25C14.7171 25 16.2184 24.5652 17.5129 23.7653L15.4102 20.3626ZM23 22C20.9872 22 19.1189 21.4074 17.5528 20.3878L15.3704 23.74C17.5662 25.1695 20.1892 26 23 26V22ZM23.7565 21.9719C23.5071 21.9905 23.2549 22 23 22V26C23.3542 26 23.7057 25.9868 24.054 25.9608L23.7565 21.9719ZM26.1618 26.9861L25.8985 23.8015L21.9121 24.1312L22.1754 27.3157L26.1618 26.9861ZM26.3386 29.8923C26.3393 29.123 26.2598 28.1715 26.1618 26.9861L22.1754 27.3157C22.2792 28.5704 22.3391 29.3257 22.3386 29.8883L26.3386 29.8923ZM25.9771 32.0044C26.2572 31.3604 26.3378 30.6712 26.3386 29.8923L22.3386 29.8883C22.3381 30.4202 22.2763 30.4843 22.3089 30.4092L25.9771 32.0044ZM23.7932 34.3955C24.7663 33.8646 25.5343 33.0227 25.9771 32.0044L22.3089 30.4092C22.2191 30.6158 22.0656 30.7814 21.8775 30.8841L23.7932 34.3955ZM21.7269 34.9361C22.4988 34.8705 23.1768 34.7318 23.7932 34.3955L21.8775 30.8841C21.9577 30.8403 21.9088 30.9062 21.3882 30.9505L21.7269 34.9361ZM18.8365 35C20.0164 35 20.9651 35.0009 21.7269 34.9361L21.3882 30.9505C20.8355 30.9975 20.087 31 18.8365 31V35ZM7.50222 35H18.8365V31H7.50222V35ZM4.61178 34.9361C5.3736 35.0009 6.32232 35 7.50222 35V31C6.25173 31 5.50323 30.9975 4.95052 30.9505L4.61178 34.9361ZM2.54549 34.3955C3.16192 34.7318 3.83985 34.8705 4.61179 34.9361L4.9505 30.9505C4.42985 30.9062 4.38097 30.8403 4.46116 30.8841L2.54549 34.3955ZM0.361584 32.0044C0.804421 33.0227 1.57241 33.8646 2.54546 34.3955L4.46118 30.8841C4.27306 30.7814 4.11958 30.6158 4.02974 30.4092L0.361584 32.0044ZM0.000106115 29.8923C0.000874031 30.6712 0.0815301 31.3604 0.361584 32.0044L4.02974 30.4092C4.0624 30.4843 4.00063 30.4202 4.0001 29.8883L0.000106115 29.8923ZM0.176887 26.9861C0.0788669 28.1715 -0.000652366 29.123 0.000106115 29.8923L4.0001 29.8883C3.99955 29.3257 4.05954 28.5704 4.16328 27.3157L0.176887 26.9861ZM1.10303 15.7861L0.176887 26.9861L4.16328 27.3157L5.08942 16.1157L1.10303 15.7861ZM1.36193 13.2818C1.25455 13.9449 1.18727 14.7673 1.10303 15.7861L5.08942 16.1157C5.17894 15.0332 5.23395 14.3939 5.3105 13.9212L1.36193 13.2818ZM1.94652 11.4777C1.63264 12.0182 1.47112 12.6075 1.36193 13.2818L5.3105 13.9212C5.38138 13.4834 5.43713 13.432 5.40566 13.4862L1.94652 11.4777ZM4.08951 9.49105C3.19312 9.9233 2.44705 10.6157 1.94652 11.4777L5.40567 13.4862C5.50643 13.3127 5.65422 13.1773 5.82691 13.094L4.08951 9.49105ZM5.92865 9.05211C5.25113 9.1059 4.65248 9.21957 4.08951 9.49105L5.82691 13.094C5.76361 13.1245 5.81133 13.074 6.24521 13.0396L5.92865 9.05211ZM8.42836 9C7.41427 9 6.59443 8.99925 5.92865 9.05211L6.24521 13.0396C6.71576 13.0022 7.3493 13 8.42836 13V9ZM11.0411 9H8.42836V13H11.0411V9Z" fill="black" mask="url(#path-1-inside-1_255_4563)"/>
</svg>
