<svg width="210" height="42" viewBox="0 0 210 42" fill="none" xmlns="http://www.w3.org/2000/svg">
<path d="M67.9883 40.9998H53.4371V3.18157H67.8405C71.7307 3.18157 75.0915 3.93868 77.9229 5.45288C80.7667 6.95477 82.958 9.12144 84.4968 11.9529C86.0479 14.772 86.8235 18.1513 86.8235 22.0907C86.8235 26.0301 86.0541 29.4155 84.5153 32.2469C82.9764 35.066 80.7975 37.2327 77.9783 38.7469C75.1592 40.2488 71.8292 40.9998 67.9883 40.9998ZM63.7042 32.2838H67.619C69.4902 32.2838 71.0844 31.9822 72.4016 31.379C73.7312 30.7758 74.7406 29.7356 75.43 28.2583C76.1317 26.781 76.4826 24.7251 76.4826 22.0907C76.4826 19.4562 76.1256 17.4003 75.4116 15.9231C74.7099 14.4458 73.6758 13.4055 72.3093 12.8023C70.9551 12.1991 69.2932 11.8975 67.3235 11.8975H63.7042V32.2838ZM105.386 41.5168C102.309 41.5168 99.6742 40.9074 97.4829 39.6887C95.2917 38.4576 93.6113 36.7464 92.4418 34.5552C91.2722 32.3516 90.6875 29.7971 90.6875 26.8918C90.6875 23.9865 91.2722 21.4382 92.4418 19.2469C93.6113 17.0433 95.2917 15.3321 97.4829 14.1134C99.6742 12.8823 102.309 12.2668 105.386 12.2668C108.464 12.2668 111.098 12.8823 113.29 14.1134C115.481 15.3321 117.161 17.0433 118.331 19.2469C119.5 21.4382 120.085 23.9865 120.085 26.8918C120.085 29.7971 119.5 32.3516 118.331 34.5552C117.161 36.7464 115.481 38.4576 113.29 39.6887C111.098 40.9074 108.464 41.5168 105.386 41.5168ZM105.46 33.9827C106.322 33.9827 107.067 33.6934 107.695 33.1148C108.322 32.5362 108.809 31.7114 109.153 30.6404C109.498 29.5694 109.67 28.2952 109.67 26.8179C109.67 25.3284 109.498 24.0542 109.153 22.9955C108.809 21.9245 108.322 21.0997 107.695 20.5211C107.067 19.9425 106.322 19.6532 105.46 19.6532C104.549 19.6532 103.768 19.9425 103.115 20.5211C102.463 21.0997 101.964 21.9245 101.619 22.9955C101.275 24.0542 101.102 25.3284 101.102 26.8179C101.102 28.2952 101.275 29.5694 101.619 30.6404C101.964 31.7114 102.463 32.5362 103.115 33.1148C103.768 33.6934 104.549 33.9827 105.46 33.9827ZM141.136 12.6361V20.0225H122.449V12.6361H141.136ZM126.068 5.84066H136.261V31.8776C136.261 32.2715 136.329 32.6039 136.464 32.8748C136.6 33.1333 136.809 33.3302 137.092 33.4657C137.375 33.5888 137.739 33.6503 138.182 33.6503C138.49 33.6503 138.847 33.6134 139.253 33.5395C139.671 33.4657 139.979 33.4041 140.176 33.3549L141.653 40.5196C141.198 40.6551 140.545 40.8213 139.696 41.0182C138.859 41.2152 137.862 41.3445 136.705 41.406C134.366 41.5291 132.402 41.2891 130.814 40.6858C129.226 40.0703 128.032 39.1039 127.232 37.7867C126.431 36.4695 126.044 34.8198 126.068 32.8378V5.84066ZM162.211 12.6361V20.0225H143.523V12.6361H162.211ZM147.142 5.84066H157.336V31.8776C157.336 32.2715 157.403 32.6039 157.539 32.8748C157.674 33.1333 157.883 33.3302 158.167 33.4657C158.45 33.5888 158.813 33.6503 159.256 33.6503C159.564 33.6503 159.921 33.6134 160.327 33.5395C160.746 33.4657 161.053 33.4041 161.25 33.3549L162.728 40.5196C162.272 40.6551 161.62 40.8213 160.77 41.0182C159.933 41.2152 158.936 41.3445 157.779 41.406C155.44 41.5291 153.476 41.2891 151.888 40.6858C150.3 40.0703 149.106 39.1039 148.306 37.7867C147.506 36.4695 147.118 34.8198 147.142 32.8378V5.84066ZM166.37 40.9998V12.6361H176.563V40.9998H166.37ZM171.467 9.68157C170.088 9.68157 168.906 9.22608 167.921 8.3151C166.936 7.40411 166.444 6.30847 166.444 5.02816C166.444 3.74786 166.936 2.65222 167.921 1.74123C168.906 0.830248 170.088 0.374756 171.467 0.374756C172.858 0.374756 174.04 0.830248 175.012 1.74123C175.997 2.65222 176.489 3.74786 176.489 5.02816C176.489 6.30847 175.997 7.40411 175.012 8.3151C174.04 9.22608 172.858 9.68157 171.467 9.68157ZM195.348 41.5168C192.319 41.5168 189.709 40.9382 187.518 39.781C185.339 38.6115 183.659 36.9373 182.477 34.7583C181.307 32.567 180.723 29.9448 180.723 26.8918C180.723 23.9619 181.314 21.4013 182.495 19.21C183.677 17.0187 185.345 15.3137 187.5 14.0949C189.654 12.8762 192.196 12.2668 195.126 12.2668C197.268 12.2668 199.207 12.5992 200.943 13.264C202.679 13.9287 204.162 14.8951 205.393 16.1631C206.624 17.4188 207.572 18.9453 208.237 20.7427C208.902 22.54 209.234 24.5651 209.234 26.8179V29.1816H183.899V23.5679H199.853C199.841 22.7554 199.632 22.0414 199.225 21.4259C198.832 20.7981 198.296 20.3118 197.619 19.9671C196.954 19.6101 196.197 19.4316 195.348 19.4316C194.523 19.4316 193.766 19.6101 193.076 19.9671C192.387 20.3118 191.833 20.7919 191.414 21.4074C191.008 22.023 190.793 22.7431 190.768 23.5679V29.6248C190.768 30.5357 190.959 31.3482 191.341 32.0623C191.722 32.7763 192.27 33.3364 192.984 33.7427C193.698 34.1489 194.56 34.352 195.569 34.352C196.271 34.352 196.911 34.2535 197.49 34.0566C198.081 33.8596 198.585 33.5765 199.004 33.2071C199.422 32.8255 199.73 32.37 199.927 31.8407H209.234C208.914 33.8104 208.157 35.5215 206.963 36.9742C205.769 38.4145 204.187 39.5348 202.217 40.335C200.26 41.1229 197.97 41.5168 195.348 41.5168Z" fill="url(#paint0_linear_256_4707)"/>
<path d="M46 22C46 16.9609 44.0509 12.1281 40.5814 8.56497C37.112 5.00178 32.4065 3 27.5 3C22.5935 3 17.888 5.00178 14.4185 8.56497C10.9491 12.1281 9 16.9609 9 22H14.7813C16.6971 22 18.1911 20.3512 18.8928 18.5203C19.3535 17.3183 20.0526 16.2137 20.9592 15.2824C22.6939 13.5009 25.0467 12.5 27.5 12.5C29.9532 12.5 32.3061 13.5009 34.0408 15.2824C35.7755 17.064 36.7499 19.4805 36.7499 22H46Z" fill="url(#paint1_linear_256_4707)"/>
<path d="M34.9435 29.271C35.9081 26.9658 36.4046 24.4951 36.4046 22H46C46 32.4934 37.407 41 26.8071 41C25.147 41 23.5362 40.7914 22 40.3992C22.8692 40.1775 23.7235 39.8952 24.5564 39.5537C26.885 38.5989 29.0008 37.1994 30.7831 35.4351C32.5653 33.6707 33.9791 31.5762 34.9435 29.271Z" fill="#6C8AD6"/>
<path d="M0 22C-3.47554e-07 24.4952 0.478516 26.9658 1.40822 29.271C2.33794 31.5762 3.70063 33.6708 5.41852 35.4351C7.13639 37.1993 9.17582 38.5989 11.4203 39.5538C13.6648 40.5086 16.0705 41 18.5 41C20.9294 41 23.335 40.5086 25.5796 39.5538C27.8241 38.5989 29.8635 37.1993 31.5814 35.4351C33.2993 33.6708 34.662 31.5762 35.5917 29.271C36.5214 26.9658 37 24.4952 37 22H31.2187C29.3029 22 27.8089 23.6488 27.1071 25.4795C27.0872 25.5317 27.0667 25.5837 27.0458 25.6356C26.581 26.7881 25.8997 27.8355 25.0407 28.7176C24.1818 29.5997 23.162 30.2995 22.0398 30.7769C20.9176 31.2544 19.7148 31.5001 18.5 31.5001C17.2852 31.5001 16.0824 31.2544 14.9602 30.7769C13.8379 30.2995 12.8182 29.5997 11.9592 28.7176C11.1003 27.8355 10.419 26.7881 9.95411 25.6356C9.48924 24.4829 9.24999 23.2476 9.24999 22H0Z" fill="url(#paint2_linear_256_4707)"/>
<path d="M0 22C0 11.5065 7.87722 3 17.5942 3C19.1156 3 20.5919 3.20852 22 3.60055C18.9786 4.44107 16.1915 6.14205 13.9477 8.56498C10.6481 12.1281 8.79449 16.9609 8.79449 22H0Z" fill="#3C5A87"/>
<defs>
<linearGradient id="paint0_linear_256_4707" x1="182.137" y1="861.197" x2="101.118" y2="861.197" gradientUnits="userSpaceOnUse">
<stop stop-color="#607EC9"/>
<stop offset="1" stop-color="#1C4C96"/>
</linearGradient>
<linearGradient id="paint1_linear_256_4707" x1="46" y1="12.5" x2="9" y2="12.5" gradientUnits="userSpaceOnUse">
<stop stop-color="#607EC9"/>
<stop offset="1" stop-color="#1C4C96"/>
</linearGradient>
<linearGradient id="paint2_linear_256_4707" x1="1.21299e-06" y1="31.5001" x2="37" y2="31.5001" gradientUnits="userSpaceOnUse">
<stop stop-color="#607EC9"/>
<stop offset="1" stop-color="#1C4C96"/>
</linearGradient>
</defs>
</svg>
