<svg width="14" height="16" viewBox="0 0 14 16" fill="none" xmlns="http://www.w3.org/2000/svg">
<path d="M13.0729 5.46451C12.9799 5.53681 11.3481 6.45601 11.3481 8.50091C11.3481 10.866 13.424 11.7026 13.486 11.7232C13.4757 11.7748 13.1555 12.8696 12.3912 13.985C11.7096 14.9662 10.9969 15.9473 9.91251 15.9473C8.82811 15.9473 8.54921 15.3173 7.29951 15.3173C6.08081 15.3173 5.64701 15.968 4.65551 15.968C3.66401 15.968 2.97201 15.0591 2.17681 13.9437C1.25761 12.632 0.514008 10.5974 0.514008 8.66611C0.514008 5.56771 2.52801 3.92551 4.51091 3.92551C5.56441 3.92551 6.44221 4.61751 7.10321 4.61751C7.73321 4.61751 8.71441 3.88421 9.91241 3.88421C10.3669 3.88431 11.9988 3.92571 13.0729 5.46451ZM9.34451 2.57271C9.84021 1.98401 10.1914 1.16811 10.1914 0.352213C10.1914 0.238613 10.1811 0.125013 10.1604 0.0320129C9.35481 0.0630129 8.39431 0.569114 7.81591 1.24041C7.36151 1.75681 6.93801 2.57271 6.93801 3.39901C6.93801 3.52291 6.95871 3.64691 6.96901 3.68821C7.02061 3.69851 7.10331 3.70891 7.18591 3.70891C7.90891 3.70881 8.81771 3.22341 9.34451 2.57271Z" fill="white"/>
</svg>
